# AST/ASF file generated using VICON BodyLanguage
# -----------------------------------------------
:version 1.10
:name VICON
:units
  mass 1.0
  length 0.45
  angle deg
:documentation
   .ast/.asf automatically generated from VICON data using
   VICON BodyBuilder and BodyLanguage model FoxedUp or BRILLIANT.MOD
:root
   order TX TY TZ RX RY RZ
   axis XYZ
   position 0 0 0  
   orientation 0 0 0 
:bonedata
  begin
     id 1 
     name lhipjoint
     direction 0.567725 -0.736092 0.368589 
     length 2.42353 
     axis 0 0 0  XYZ
  end
  begin
     id 2 
     name lfemur
     direction 0.34202 -0.939693 0  
     length 7.24894  
     axis 0 0 20  XYZ
    dof rx ry rz
    limits (-160.0 20.0)
           (-70.0 70.0)
           (-60.0 70.0)
  end
  begin
     id 3 
     name ltibia
     direction 0.34202 -0.939693 0   
     length 7.6997   
     axis 0 0 20   XYZ
    dof rx
    limits (-10.0 170.0)
  end
  begin
     id 4 
     name lfoot
     direction 0.100767 -0.276854 0.955614   
     length 2.37556   
     axis -90 7.62852e-016 20   XYZ
    dof rx rz
    limits (-45.0 90.0)
           (-70.0 20.0)
  end
  begin
     id 5 
     name ltoes
     direction 1.53592e-011 -4.21894e-011 1   
     length 1.18363   
     axis -90 7.62852e-016 20   XYZ
    dof rx
    limits (-90.0 20.0)
  end
  begin
     id 6 
     name rhipjoint
     direction -0.556459 -0.742938 0.372017   
     length 2.4012  
     axis 0 0 0  XYZ 
  end
  begin
     id 7 
     name rfemur
     direction -0.34202 -0.939693 0   
     length 7.5119   
     axis 0 0 -20   XYZ
    dof rx ry rz
    limits (-160.0 20.0)
           (-70.0 70.0)
           (-70.0 60.0)
  end
  begin
     id 8 
     name rtibia
     direction -0.34202 -0.939693 0   
     length 7.50155   
     axis 0 0 -20   XYZ
    dof rx
    limits (-10.0 170.0)
 end
 begin
     id 9 
     name rfoot
     direction -0.118427 -0.325376 0.938139   
     length 2.32487  
     axis -90 -7.62852e-016 -20   XYZ
    dof rx rz
    limits (-45.0 90.0)
           (-20.0 70.0)
  end
  begin
     id 10 
     name rtoes
     direction -1.53525e-011 -4.21868e-011 1   
     length 1.15233   
     axis -90 -7.62852e-016 -20   XYZ
    dof rx
    limits (-90.0 20.0)
  end
  begin
     id 11 
     name lowerback
     direction 0.0287568 0.999577 -0.00434502   
     length 2.15243   
     axis 0 0 0   XYZ
    dof rx ry rz
    limits (-20.0 45.0)
           (-30.0 30.0)
           (-30.0 30.0)
  end
  begin
     id 12 
     name upperback
     direction 0.0294009 0.99956 0.00404628   
     length 2.15427   
     axis 0 0 0   XYZ
    dof rx ry rz
    limits (-20.0 45.0)
           (-30.0 30.0)
           (-30.0 30.0)
  end
  begin
     id 13 
     name thorax
     direction 0.0151014 0.999868 0.0059419   
     length 2.14898   
     axis 0 0 0   XYZ
    dof rx ry rz
    limits (-20.0 45.0)
           (-30.0 30.0)
           (-30.0 30.0)
  end
  begin
     id 14 
     name lowerneck
     direction -0.0249197 0.989906 0.139515   
     length 1.6861   
     axis 0 0 0   XYZ
    dof rx ry rz
    limits (-20.0 45.0)
           (-30.0 30.0)
           (-30.0 30.0)
  end
  begin
     id 15 
     name upperneck
     direction 0.0438463 0.988795 -0.142693   
     length 1.71276   
     axis 0 0 0   XYZ
    dof rx ry rz
    limits (-20.0 45.0)
           (-30.0 30.0)
           (-30.0 30.0)
  end
  begin
     id 16
     name head
     direction 0.0148499 0.997845 -0.0639186  
     length 1.7209  
     axis 0 0 0   XYZ
    dof rx ry rz
    limits (-20.0 45.0)
           (-30.0 30.0)
           (-30.0 30.0)
  end
  begin
     id 17 
     name lclavicle
     direction 0.940298 0.323464 -0.105876  
     length 3.9048  
     axis 0 0 0   XYZ
    dof ry rz
    limits (-20.0 10.0)
           (0.0 20.0)
  end
  begin
     id 18 
     name lhumerus
     direction 1 -4.48954e-011 -4.9675e-028   
     length 4.6851   
     axis 180 -30 -90   XYZ
    dof rx ry rz
    limits (-60.0 90.0)
           (-90.0 90.0)
           (-90.0 90.0)
  end
  begin
     id 19
     name lradius
     direction 1 -4.48992e-011 -1.03359e-026   
     length 3.39626   
     axis 180 -30 -90   XYZ
    dof rx
    limits (-10.0 170.0)
  end
  begin
     id 20
     name lwrist
     direction 1 -4.48906e-011 -1.67336e-026   
     length 1.69813   
     axis 9.90442e-015 90 90   XYZ
    dof ry
    limits (-180.0 0.0)
 end
  begin
     id 21 
     name lhand
     direction 1 -4.49006e-011 -3.34673e-026   
     length 0.486078   
     axis 2.1355e-014 90 90   XYZ
    dof rx rz
    limits (-90.0 90.0)
           (-45.0 45.0)
  end
  begin
     id 22 
     name lfingers
     direction 1 -4.48992e-011 -6.69345e-026   
     length 0.391889   
     axis 4.27099e-014 90 90   XYZ
    dof rx
    limits (0.0 90.0)
  end
  begin
     id 23
     name lthumb
     direction 0.707107 -6.34926e-011 0.707107   
     length 0.562676   
     axis -90 45 2.85299e-015   XYZ
    dof rx rz
    limits (-45.0 45.0)
           (-45.0 45.0)
  end
  begin
     id 24 
     name rclavicle
     direction -0.882459 0.414895 -0.221648   
     length 3.44646  
     axis 0 0 0   XYZ 
    dof ry rz
    limits (-10.0 20.0)
           (-20.0 0.0)
  end
  begin
     id 25 
     name rhumerus
     direction -1 -4.48962e-011 -2.37984e-027  
     length 5.55576   
     axis 180 30 90   XYZ
    dof rx ry rz
    limits (-90.0 60.0)
           (-90.0 90.0)
           (-90.0 90.0)
  end
  begin
     id 26 
     name rradius
     direction -1 -4.48982e-011 -6.86791e-027   
     length 3.32774   
     axis 180 30 90   XYZ
    dof rx
    limits (-10.0 170.0)
  end
  begin
     id 27 
     name rwrist
     direction -1 -4.48961e-011 -1.67336e-026   
     length 1.66387   
     axis 9.90442e-015 -90 -90   XYZ
    dof ry
    limits (-180.0 0.0)
  end
  begin
     id 28
     name rhand
     direction -1 -4.4897e-011 -3.34673e-026   
     length 0.507628   
     axis 2.1355e-014 -90 -90   XYZ
    dof rx rz
    limits (-90.0 90.0)
           (-45.0 45.0)
  end
  begin
     id 29
     name rfingers
     direction -1 -4.48854e-011 -6.69345e-026   
     length 0.409263   
     axis 4.27099e-014 -90 -90   XYZ
    dof rx
    limits (0.0 90.0)
  end
  begin
     id 30
     name rthumb
     direction -0.707107 -6.34913e-011 0.707107   
     length 0.587622   
     axis -90 -45 -2.85299e-015   XYZ
    dof rx rz
    limits (-45.0 45.0)
           (-45.0 45.0)
  end
:hierarchy
  begin
    root lhipjoint rhipjoint lowerback
    lhipjoint lfemur
    lfemur ltibia
    ltibia lfoot
    lfoot ltoes
    rhipjoint rfemur
    rfemur rtibia
    rtibia rfoot
    rfoot rtoes
    lowerback upperback
    upperback thorax
    thorax lowerneck lclavicle rclavicle
    lowerneck upperneck
    upperneck head
    lclavicle lhumerus
    lhumerus lradius
    lradius lwrist
    lwrist lhand lthumb
    lhand lfingers
    rclavicle rhumerus
    rhumerus rradius
    rradius rwrist
    rwrist rhand rthumb
    rhand rfingers
  end

#!OML:ASF E:\motion texture\Top Level 1\Subject 1\Session 1\male.ASF
:FULLY-SPECIFIED
:DEGREES
49
root 26.1794 17.3129 5.45346 -17.4684 -85.9761 19.62
lowerback 3.16111 -4.84149 -3.81363
upperback -1.9456 -6.57752 2.86176
thorax -3.01362 -3.17934 5.4289
lowerneck -20.8202 -2.10174 -4.17421
upperneck 14.7876 -2.97142 6.68401
head 8.16944 -0.966845 2.54549
rclavicle 7.9576e-015 -1.19271e-014
rhumerus -51.4969 -6.08056 -70.6299
rradius 46.3191
rwrist 3.0724
rhand -12.6485 -11.1519
rfingers 7.12502
rthumb 13.432 -40.6988
lclavicle 7.9576e-015 -1.19271e-014
lhumerus -26.7869 -21.0191 97.5808
lradius 60.0355
lwrist -2.65395
lhand -9.07052 11.2632
lfingers 7.12502
lthumb 16.8786 40.5497
rfemur -53.2307 -9.56647 19.6447
rtibia 59.4923
rfoot -336.454 -8.43253
rtoes 19.5362
lfemur 11.2184 -4.69087 -21.8865
ltibia 18.6129
lfoot -16.4455 -5.32385
ltoes -13.9049
50
root 25.98 17.2985 5.40958 -13.0717 -86.0444 15.28
lowerback 2.5653 -4.7414 -3.67828
upperback -1.98255 -6.42165 2.94154
thorax -2.74084 -3.11333 5.37407
lowerneck -20.6535 -2.2018 -4.29085
upperneck 14.8786 -3.08613 6.69304
head 8.18017 -1.02937 2.5535
rclavicle 8.2053e-015 0
rhumerus -50.7332 -5.72436 -72.1188
rradius 47.2045
rwrist 1.99795
rhand -12.8386 -11.6737
rfingers 7.12502
rthumb 13.2488 -41.2326
lclavicle 8.2053e-015 0
lhumerus -27.6704 -20.4477 97.8247
lradius 58.2512
lwrist -2.87484
lhand -8.63828 11.4186
lfingers 7.12502
lthumb 17.2946 40.6691
rfemur -50.1171 -9.0641 19.8027
rtibia 57.5532
rfoot -340.124 -7.42254
rtoes 14.9182
lfemur 11.1599 -4.57334 -21.1662
ltibia 19.7524
lfoot -15.9245 -5.94545
ltoes -15.4697
51
root 25.7769 17.2859 5.36195 -8.60169 -86.1051 10.8757
lowerback 1.93822 -4.63084 -3.56973
upperback -2.0429 -6.25457 3.02274
thorax -2.47296 -3.04021 5.33649
lowerneck -20.441 -2.30179 -4.40879
upperneck 14.9901 -3.20145 6.68947
head 8.18981 -1.09442 2.55767
rclavicle 3.1234e-014 -4.77083e-015
rhumerus -49.9487 -5.21057 -73.7347
rradius 48.1588
rwrist 0.775017
rhand -12.9828 -12.1999
rfingers 7.12502
rthumb 13.1097 -41.7678
lclavicle 3.1234e-014 -4.77083e-015
lhumerus -28.5973 -19.8233 98.0217
lradius 56.3711
lwrist -3.20283
lhand -8.289 11.5865
lfingers 7.12502
lthumb 17.6307 40.8071
rfemur -47.0239 -8.47707 20.0193
rtibia 55.6265
rfoot -344.825 -6.11979
rtoes 10.9061
lfemur 10.8376 -4.37618 -20.3679
ltibia 21.3042
lfoot -15.2012 -6.72421
ltoes -17.205
52
root 25.5724 17.2757 5.31135 -4.14818 -86.1576 6.49186
lowerback 1.31394 -4.50765 -3.48081
upperback -2.1275 -6.07357 3.10128
thorax -2.23161 -2.95821 5.31174
lowerneck -20.2053 -2.40274 -4.53234
upperneck 15.135 -3.31787 6.67403
head 8.20664 -1.16193 2.55906
rclavicle -4.62174e-015 1.66979e-014
rhumerus -49.1259 -4.55047 -75.4572
rradius 49.1632
rwrist -0.527146
rhand -13.0693 -12.7231
rfingers 7.12502
rthumb 13.0264 -42.2964
lclavicle -4.62174e-015 1.66979e-014
lhumerus -29.5606 -19.1465 98.1539
lradius 54.3966
lwrist -3.69459
lhand -8.08017 11.6544
lfingers 7.12502
lthumb 17.8317 40.8569
rfemur -44.0155 -7.80879 20.2823
rtibia 53.6353
rfoot -349.943 -4.62943
rtoes 8.6389
lfemur 10.1997 -4.08853 -19.4924
ltibia 23.3272
lfoot -14.1831 -7.69379
ltoes -19.0153
53
root 25.3696 17.2684 5.25882 0.611371 -86.2198 1.79161
lowerback 0.730184 -4.3624 -3.37133
upperback -2.23069 -5.8656 3.17653
thorax -2.03763 -2.86118 5.28004
lowerneck -19.9564 -2.50724 -4.65555
upperneck 15.3107 -3.43992 6.64456
head 8.23159 -1.23381 2.55532
rclavicle -5.80451e-014 3.33958e-014
rhumerus -48.2477 -3.77037 -77.262
rradius 50.1995
rwrist -1.81532
rhand -13.0677 -13.1769
rfingers 7.12502
rthumb 13.028 -42.75
lclavicle -5.80451e-014 3.33958e-014
lhumerus -30.5475 -18.4361 98.2056
lradius 52.3213
lwrist -4.42894
lhand -8.03508 11.5943
lfingers 7.12502
lthumb 17.8751 40.7928
rfemur -41.1414 -7.04406 20.614
rtibia 51.5178
rfoot -354.843 -3.23286
rtoes 8.49511
lfemur 9.21925 -3.70161 -18.516
ltibia 25.8428
lfoot -12.7335 -8.8567
ltoes -20.7866
54
root 25.171 17.2643 5.20596 6.16409 -86.303 -3.73148
lowerback 0.225092 -4.18591 -3.19378
upperback -2.33651 -5.61846 3.25109
thorax -1.90105 -2.74388 5.21995
lowerneck -19.7346 -2.62107 -4.79302
upperneck 15.5205 -3.57369 6.6196
head 8.27379 -1.31117 2.5543
rclavicle 3.32467e-014 -1.90833e-014
rhumerus -47.2829 -2.88612 -79.1286
rradius 51.2615
rwrist -2.98813
rhand -13.0359 -13.6091
rfingers 7.12502
rthumb 13.0586 -43.1803
lclavicle 3.32467e-014 -1.90833e-014
lhumerus -31.5159 -17.692 98.1518
lradius 50.1416
lwrist -5.44788
lhand -8.08492 11.398
lfingers 7.12502
lthumb 17.8271 40.6009
rfemur -38.4405 -6.19095 21.0508
rtibia 49.2621
rfoot -358.944 -2.23
rtoes 10.3744
lfemur 7.89238 -3.21803 -17.4272
ltibia 28.836
lfoot -10.6714 -10.1603
ltoes -22.2771
55
root 24.9791 17.2638 5.15396 13.1931 -86.4066 -10.7804
lowerback -0.170203 -3.96946 -2.9032
upperback -2.43002 -5.32093 3.32943
thorax -1.8275 -2.6017 5.11216
lowerneck -19.5492 -2.74659 -4.95034
upperneck 15.7467 -3.72098 6.60745
head 8.32951 -1.39431 2.55924
rclavicle 4.36332e-014 -7.95139e-016
rhumerus -46.2033 -1.9019 -81.0323
rradius 52.3388
rwrist -3.98681
rhand -12.9302 -14.048
rfingers 7.12502
rthumb 13.1604 -43.6127
lclavicle 4.36332e-014 -7.95139e-016
lhumerus -32.4401 -16.9034 97.9668
lradius 47.8852
lwrist -6.73733
lhand -8.16118 11.0911
lfingers 7.12502
lthumb 17.7537 40.3006
rfemur -35.9368 -5.26867 21.6376
rtibia 46.9389
rfoot -362.196 -1.7084
rtoes 12.9901
lfemur 6.2438 -2.63774 -16.2109
ltibia 32.2377
lfoot -7.76129 -11.4963
ltoes -23.3012
56
root 24.7957 17.2669 5.1035 22.4634 -86.4895 -20.1333
lowerback -0.431153 -3.7089 -2.45638
upperback -2.50038 -4.96761 3.41523
thorax -1.82113 -2.43299 4.93629
lowerneck -19.4103 -2.88594 -5.1242
upperneck 15.9742 -3.8853 6.61364
head 8.39583 -1.48397 2.57076
rclavicle 1.44864e-014 1.66979e-014
rhumerus -44.9957 -0.815579 -82.956
rradius 53.4299
rwrist -4.78361
rhand -12.7774 -14.4804
rfingers 7.12502
rthumb 13.3078 -44.0355
lclavicle 1.44864e-014 1.66979e-014
lhumerus -33.2849 -16.0538 97.6205
lradius 45.5696
lwrist -8.28439
lhand -8.18732 10.7981
lfingers 7.12502
lthumb 17.7286 40.0099
rfemur -33.649 -4.32116 22.4219
rtibia 44.6789
rfoot -364.631 -1.63027
rtoes 15.2349
lfemur 4.30663 -1.95914 -14.8477
ltibia 35.9653
lfoot -3.88724 -12.6826
ltoes -23.5674
57
root 24.6223 17.2729 5.05555 34.0731 -86.4823 -31.8901
lowerback -0.547502 -3.40494 -1.83484
upperback -2.54126 -4.55854 3.50964
thorax -1.87899 -2.23871 4.68138
lowerneck -19.3122 -3.03584 -5.3078
upperneck 16.1785 -4.06208 6.63614
head 8.46334 -1.57789 2.58738
rclavicle 2.57675e-014 -3.4191e-014
rhumerus -43.6529 0.394455 -84.878
rradius 54.5479
rwrist -5.41878
rhand -12.5615 -15.0174
rfingers 7.12502
rthumb 13.5159 -44.5587
lclavicle 2.57675e-014 -3.4191e-014
lhumerus -34.0226 -15.1228 97.0927
lradius 43.2177
lwrist -10.0255
lhand -8.04178 10.5856
lfingers 7.12502
lthumb 17.8686 39.7847
rfemur -31.6141 -3.39663 23.4115
rtibia 42.6608
rfoot -366.366 -1.83483
rtoes 16.8801
lfemur 2.12256 -1.19784 -13.3604
ltibia 39.9257
lfoot 0.913928 -13.5281
ltoes -22.7125
58
root 24.4602 17.2808 5.01083 47.1531 -86.2976 -45.1783
lowerback -0.508277 -3.06464 -1.03288
upperback -2.55757 -4.10076 3.61593
thorax -2.0073 -2.0231 4.34577
lowerneck -19.233 -3.18988 -5.494
upperneck 16.3378 -4.24319 6.67151
head 8.52005 -1.67258 2.60771
rclavicle -5.40694e-014 2.70347e-014
rhumerus -42.173 1.74429 -86.7676
rradius 55.6796
rwrist -5.96888
rhand -12.2765 -15.6626
rfingers 7.12502
rthumb 13.7905 -45.1855
lclavicle -5.40694e-014 2.70347e-014
lhumerus -34.655 -14.0697 96.3671
lradius 40.8747
lwrist -11.8512
lhand -7.72078 10.4578
lfingers 7.12502
lthumb 18.1775 39.6284
rfemur -29.8606 -2.53698 24.5895
rtibia 41.0445
rfoot -367.544 -2.16548
rtoes 18.0231
lfemur -0.270593 -0.370799 -11.7728
ltibia 44.0425
lfoot 6.46902 -13.9618
ltoes -20.2186
59
root 24.3095 17.2897 4.97016 59.7946 -85.8664 -58.0889
lowerback -0.311698 -2.70247 -0.0524185
upperback -2.54516 -3.60931 3.73516
thorax -2.19654 -1.79489 3.92854
lowerneck -19.1737 -3.3412 -5.66115
upperneck 16.4428 -4.42108 6.70429
head 8.56168 -1.76457 2.6238
rclavicle -4.21423e-014 4.85035e-014
rhumerus -40.5599 3.26758 -88.6019
rradius 56.8312
rwrist -6.5175
rhand -11.9722 -16.4194
rfingers 7.12502
rthumb 14.0838 -45.9222
lclavicle -4.21423e-014 4.85035e-014
lhumerus -35.1767 -12.863 95.4326
lradius 38.5595
lwrist -13.7637
lhand -7.23923 10.4293
lfingers 7.12502
lthumb 18.6407 39.5561
rfemur -28.3786 -1.78582 25.9188
rtibia 39.8919
rfoot -368.299 -2.45872
rtoes 18.7483
lfemur -2.83901 0.508545 -10.1145
ltibia 48.2575
lfoot 12.4685 -14.0267
ltoes -15.9138
60
root 24.1691 17.2985 4.93398 70.1277 -85.1892 -68.7524
lowerback 0.0255672 -2.33807 1.07671
upperback -2.49142 -3.10556 3.86451
thorax -2.41692 -1.56556 3.43963
lowerneck -19.1556 -3.48722 -5.80601
upperneck 16.4912 -4.59277 6.74091
head 8.59097 -1.85101 2.63759
rclavicle -4.75592e-014 4.77083e-015
rhumerus -38.7974 4.98715 -90.3454
rradius 58.0008
rwrist -7.13994
rhand -11.6514 -17.3114
rfingers 7.12502
rthumb 14.3929 -46.7924
lclavicle -4.75592e-014 4.77083e-015
lhumerus -35.5898 -11.4683 94.2728
lradius 36.2965
lwrist -15.7327
lhand -6.68651 10.3585
lfingers 7.12502
lthumb 19.1723 39.4335
rfemur -27.1148 -1.17485 27.336
rtibia 39.1552
rfoot -368.773 -2.62413
rtoes 19.1487
lfemur -5.5561 1.42173 -8.42828
ltibia 52.537
lfoot 18.569 -13.8901
ltoes -9.66777
61
root 24.0376 17.307 4.90233 77.636 -84.3173 -76.6639
lowerback 0.487864 -1.9894 2.31857
upperback -2.38399 -2.60915 4.0041
thorax -2.64106 -1.34472 2.89699
lowerneck -19.173 -3.6266 -5.91461
upperneck 16.4759 -4.75704 6.76845
head 8.60365 -1.93185 2.64247
rclavicle -2.38293e-014 5.64548e-014
rhumerus -36.8888 6.92027 -91.9571
rradius 59.1815
rwrist -7.86699
rhand -11.378 -18.2258
rfingers 7.12502
rthumb 14.6563 -47.6878
lclavicle -2.38293e-014 5.64548e-014
lhumerus -35.9217 -9.87162 92.8936
lradius 34.1541
lwrist -17.6922
lhand -6.04695 10.3555
lfingers 7.12502
lthumb 19.7872 39.3683
rfemur -25.9604 -0.733961 28.7919
rtibia 38.6975
rfoot -369.087 -2.62202
rtoes 19.2946
lfemur -8.3877 2.36558 -6.7402
ltibia 56.8525
lfoot 24.3957 -13.6686
ltoes -1.88752
62
root 23.9131 17.3142 4.87451 82.9064 -83.343 -82.398
lowerback 1.04645 -1.66164 3.60081
upperback -2.22563 -2.12484 4.1533
thorax -2.8509 -1.1329 2.33889
lowerneck -19.2273 -3.76018 -5.99471
upperneck 16.4024 -4.91259 6.78532
head 8.60162 -2.00704 2.63941
rclavicle 2.96935e-014 -1.35174e-014
rhumerus -34.8345 9.04941 -93.3815
rradius 60.3518
rwrist -8.66839
rhand -11.2252 -19.1739
rfingers 7.12502
rthumb 14.8035 -48.6252
lclavicle 2.96935e-014 -1.35174e-014
lhumerus -36.2091 -8.08107 91.3199
lradius 32.1611
lwrist -19.6418
lhand -5.44085 10.3993
lfingers 7.12502
lthumb 20.3698 39.351
rfemur -24.8298 -0.462407 30.2283
rtibia 38.3743
rfoot -369.342 -2.45405
rtoes 19.3035
lfemur -11.3294 3.37234 -5.10159
ltibia 61.2071
lfoot 29.5239 -13.3361
ltoes 6.3892
63
root 23.7931 17.321 4.8489 86.0911 -82.3664 -86.1073
lowerback 1.67838 -1.37884 4.81535
upperback -2.02328 -1.68542 4.30325
thorax -3.03746 -0.943142 1.8171
lowerneck -19.3062 -3.8915 -6.05605
upperneck 16.2825 -5.06258 6.78961
head 8.58706 -2.07921 2.62912
rclavicle 9.64106e-015 3.18055e-014
rhumerus -32.6553 11.3454 -94.5659
rradius 61.4998
rwrist -9.49771
rhand -11.1969 -20.1312
rfingers 7.12502
rthumb 14.8308 -49.5804
lclavicle 9.64106e-015 3.18055e-014
lhumerus -36.5159 -6.15266 89.5954
lradius 30.364
lwrist -21.5471
lhand -4.99916 10.4217
lfingers 7.12502
lthumb 20.7942 39.3275
rfemur -23.616 -0.387626 31.5551
rtibia 38.0189
rfoot -369.61 -2.20244
rtoes 19.2652
lfemur -14.3786 4.40875 -3.59714
ltibia 65.5786
lfoot 33.5204 -12.8982
ltoes 13.3969
